# xmcd CD database file
#
# Track frame offsets:
#	150
#	33742
#	64242
#	88835
#	117750
#	155350
#	184995
#	203140
#	246647
#	271525
#
# Disc length: 4017 seconds
#
# Revision: 0
# Processed by: cddbd v1.5.1PL2 Copyright (c) Steve Scherf et al.
# Submitted via: CDex 1.51
#
DISCID=8e0faf0a
DTITLE=Bill Charlap Trio - Written in the Stars
DYEAR=2000
DGENRE=Jazz
TTITLE0=In the Still of the Night
TTITLE1=Dream
TTITLE2=The Man That Got Away
TTITLE3=Blue Skies
TTITLE4=Where Have You Been?
TTITLE5=Where or When
TTITLE6=On a Slow Boat to China
TTITLE7=One for My Baby (And One More for the Road)
TTITLE8=I'll Never Go There Anymore
TTITLE9=Lorelei
EXTD=YEAR: 2000
EXTT0=
EXTT1=
EXTT2=
EXTT3=
EXTT4=
EXTT5=
EXTT6=
EXTT7=
EXTT8=
EXTT9=
PLAYORDER=
